<svg width="62" height="28" viewBox="0 0 62 28" fill="none" xmlns="http://www.w3.org/2000/svg">
<path d="M60.65 3.975C60.7 4.8 60.7 4.85 60.525 5.2C60.225 5.8 59.925 6.05 59.4 6.125C58.675 6.25 57.05 6.275 56.15 6.175C55.5 6.125 55.275 6.075 55.2 5.975C55.125 5.9 55.1 5.375 55.125 4.1V2.325L55.4 2.225C55.575 2.2 55.95 2.125 56.25 2.075C56.55 2.025 57.15 1.925 57.6 1.85C58.9 1.6 59.775 1.725 60.275 2.275C60.525 2.525 60.575 2.8 60.65 3.975ZM60.225 8.85H60.25C60.225 9.475 60.275 10.7 60.325 11.6C60.425 13.2 60.425 13.275 60.225 15.45C60.125 16.675 60.025 17.975 60 18.375C59.95 19.3 59.825 19.8 59.675 19.9C59.425 20.025 58.425 20.125 56.775 20.15C55.625 20.175 55 20.175 54.925 20.125C54.825 20.05 54.8 19.725 54.85 16.375C54.85 14.375 54.9 12.45 54.95 12.1C55.025 11.55 55.175 8.575 55.175 8.1C55.175 7.975 55.2 7.875 55.25 7.825C55.3 7.8 55.675 7.775 56.1 7.775C56.775 7.775 58.7 7.6 59.6 7.475C59.9 7.45 59.975 7.45 60.1 7.6C60.25 7.75 60.25 7.8 60.225 8.85Z" fill="#4535FF"/>
<path d="M11.925 9.35C13.475 9.675 14.8 10.05 15.45 10.35C16.175 10.7 17.05 11.575 17.4 12.275C18.075 13.65 18.225 15.825 17.775 17.8C17.475 19.1 17.125 20.375 16.9 20.8C16.375 21.825 15.35 23.225 14.8 23.65C13.95 24.275 12.475 24.875 10.975 25.2C10 25.4 8.425 25.475 7.7 25.375C6.95 25.25 6.2 25 5.425 24.65C3.65 23.8 1.675 22.15 0.95 20.925C0.25 19.75 0.05 17.9 0.45 16.45C1.25 13.6 3.125 10.825 4.9 9.875C6.425 9.05 9.425 8.825 11.925 9.35ZM10.35 18.35C10.975 17.1 11.075 16.4 10.7 15.7C10.55 15.4 10.5 15.35 10.175 15.275C9.35 15.075 8.975 15.025 8.4 15.15C7.55 15.3 7.1 15.7 6.275 16.925C5.65 17.875 5.45 18.325 5.425 18.85C5.4 19.275 5.4 19.325 5.625 19.575C6.225 20.25 7.05 20.475 8 20.225C8.6 20.075 9.25 19.75 9.65 19.4C9.9 19.175 10.1 18.9 10.35 18.35Z" fill="#229C5A"/>
<path d="M34.8 3.175C34.85 3.325 34.95 9.3 34.95 13.025C34.95 16.4 34.875 17.725 34.65 18.25C34.45 18.725 33.775 18.9 31.75 19C31.025 19.025 30.05 19.1 29.575 19.15C28.6 19.25 28.05 19.2 27.675 18.9C27.3 18.6 26.6 17.125 26.025 15.375C25.775 14.55 25.45 13.65 25.325 13.4C25.025 12.825 24.625 12.375 24.4 12.375C24.225 12.375 23.9 12.7 23.825 12.95C23.7 13.325 23.625 14.425 23.55 16.05C23.475 18.475 23.35 19.15 22.975 19.375C22.725 19.525 22.25 19.575 21.375 19.5C20.4 19.425 19.425 19.25 19.05 19.1C18.6 18.925 18.55 18.725 18.775 17.725C19.125 16.225 19.125 16.05 19.15 7.45C19.15 6.2 19.125 5.35 19.05 4.95C18.875 3.875 18.975 3 19.25 2.875C19.325 2.85 19.725 2.8 20.15 2.8C20.55 2.8 21.225 2.75 21.6 2.7C21.975 2.675 23.25 2.6 24.4 2.575C26.875 2.525 26.825 2.5 27.2 3.3C27.45 3.825 28.35 6.575 28.775 8.05C29.45 10.525 29.475 10.55 29.7 10.75C29.975 10.975 30.125 10.95 30.3 10.6C30.475 10.25 30.5 9.2 30.35 8.075C30.25 7.225 30.225 5.4 30.325 4.7C30.475 3.75 30.7 2.675 30.85 2.525C31.2 2.075 34.575 2.625 34.8 3.175Z" fill="#FF238D"/>
<path d="M54.4 23.875C54.65 24.125 54.65 24.425 54.4 24.65C54.1 24.925 53.575 25.15 51.925 25.675C51.075 25.925 50 26.275 49.55 26.425C48.6 26.75 48.25 26.8 47.95 26.6C47.775 26.475 47 25.8 44.35 23.375C43.95 23 43.4 22.475 43.175 22.2L42.75 21.7L42.7 21.975C42.6 22.35 42.7 24.175 42.825 25.1C42.95 26.025 42.975 26.4 42.825 26.5C42.75 26.575 42.225 26.6 41.15 26.625C40.275 26.625 39.25 26.65 38.9 26.675C38.525 26.7 38 26.7 37.725 26.65C36.8 26.575 36.775 26.5 36.85 24.875C36.875 24.325 36.925 23.1 36.925 22.175C36.95 21.25 37 19.8 37.05 18.95C37.075 18.075 37.15 16 37.2 14.3C37.275 11.55 37.275 11.15 37.175 10.125C37.1 9.5 37.05 8.875 37.05 8.725C37.05 8.25 37.05 8.25 39.8 8.225C41.15 8.225 42.325 8.225 42.4 8.275C42.7 8.375 42.725 8.5 42.65 9.875C42.575 11.325 42.575 13.65 42.625 14.725L42.675 15.4L43.1 14.825C43.5 14.25 43.825 13.725 44.675 12.2C45.525 10.75 45.85 10.2 46.15 9.775C46.325 9.55 46.675 9.05 46.95 8.675C47.7 7.6 47.725 7.575 48.25 7.475C48.5 7.4 49.45 7.325 50.325 7.3C51.2 7.25 52.275 7.2 52.725 7.2C53.7 7.15 53.875 7.2 53.9 7.6C53.95 7.925 53.775 8.25 53.175 9.15C52.4 10.3 49.25 14.525 48.175 15.85C47.6 16.55 47.375 16.9 47.375 17.075C47.375 17.425 47.775 17.875 48.675 18.575C49.175 18.95 50.05 19.725 50.65 20.275C51.225 20.85 52.025 21.6 52.45 21.925C52.85 22.275 53.4 22.8 53.675 23.125C53.975 23.45 54.275 23.775 54.4 23.875Z" fill="#FFBD12"/>
</svg>
