<svg width="122" height="122" viewBox="0 0 122 122" fill="none" xmlns="http://www.w3.org/2000/svg">
<circle cx="61" cy="61" r="61" fill="black" fill-opacity="0.5"/>
<path d="M54.1227 48.419V50.239C54.1227 51.1577 53.997 52.0417 53.7457 52.891C53.4944 53.7403 53.126 54.4943 52.6407 55.153C52.164 55.803 51.592 56.297 50.9247 56.635L50.0667 55.478C50.6647 55.192 51.1804 54.776 51.6137 54.23C52.0557 53.6753 52.3894 53.0513 52.6147 52.358C52.8487 51.6647 52.9657 50.9583 52.9657 50.239V48.419H54.1227ZM54.3827 48.419V50.239C54.3827 50.9323 54.491 51.6127 54.7077 52.28C54.933 52.9473 55.2537 53.5453 55.6697 54.074C56.0857 54.594 56.584 54.997 57.1647 55.283L56.2937 56.414C55.6524 56.0847 55.102 55.608 54.6427 54.984C54.1834 54.3513 53.8324 53.6277 53.5897 52.813C53.3557 51.9897 53.2387 51.1317 53.2387 50.239V48.419H54.3827ZM59.2707 47.483V59.053H57.8277V47.483H59.2707ZM61.0387 52.02V53.216H58.9457V52.02H61.0387ZM65.329 48.757V49.81C65.329 50.538 65.199 51.2227 64.939 51.864C64.6877 52.4967 64.315 53.0513 63.821 53.528C63.3357 53.996 62.7463 54.347 62.053 54.581L61.325 53.463C61.923 53.2637 62.4343 52.9777 62.859 52.605C63.2837 52.2237 63.6043 51.7947 63.821 51.318C64.0377 50.8327 64.146 50.33 64.146 49.81V48.757H65.329ZM65.602 48.757V49.81C65.602 50.304 65.7103 50.7763 65.927 51.227C66.1437 51.6777 66.46 52.085 66.876 52.449C67.3007 52.8043 67.8077 53.0773 68.397 53.268L67.669 54.373C66.993 54.1563 66.4123 53.8227 65.927 53.372C65.4417 52.9127 65.0733 52.3797 64.822 51.773C64.5707 51.1577 64.445 50.5033 64.445 49.81V48.757H65.602ZM68.02 48.341V49.485H61.715V48.341H68.02ZM70.802 47.483V55.881H69.359V47.483H70.802ZM71.114 57.675V58.819H63.197V57.675H71.114ZM64.627 55.101V58.234H63.197V55.101H64.627ZM53.7975 63.483V75.053H52.3545V63.483H53.7975ZM55.5525 67.877V69.06H53.4725V67.877H55.5525ZM46.6085 64.419V67.318H49.3125V64.419H50.7295V72.323H45.1915V64.419H46.6085ZM46.6085 71.179H49.3125V68.436H46.6085V71.179ZM66.2128 68.956V70.113H55.7608V68.956H66.2128ZM61.6628 69.918V75.053H60.2458V69.918H61.6628ZM59.4268 64.224V65.368H56.5928V64.224H59.4268ZM60.3628 64.224V64.835C60.3628 65.5457 60.3282 66.2563 60.2588 66.967C60.1895 67.6777 60.0248 68.5053 59.7648 69.45L58.3608 69.229C58.6208 68.3277 58.7855 67.5433 58.8548 66.876C58.9242 66.2087 58.9588 65.5283 58.9588 64.835V64.224H60.3628ZM64.2758 64.224V65.368H61.1818V64.224H64.2758ZM65.0558 64.224V64.926C65.0558 65.654 65.0298 66.3647 64.9778 67.058C64.9258 67.7427 64.7958 68.5357 64.5878 69.437L63.1968 69.229C63.3962 68.371 63.5218 67.617 63.5738 66.967C63.6258 66.317 63.6518 65.6367 63.6518 64.926V64.224H65.0558ZM76.3012 63.47V75.04H74.8712V63.47H76.3012ZM72.8822 64.679C72.8822 65.8923 72.7088 67.006 72.3622 68.02C72.0242 69.0253 71.4608 69.9527 70.6722 70.802C69.8835 71.6427 68.8392 72.3793 67.5392 73.012L66.7982 71.881C67.8988 71.3523 68.7915 70.75 69.4762 70.074C70.1608 69.3893 70.6592 68.6267 70.9712 67.786C71.2918 66.9367 71.4522 65.9877 71.4522 64.939V64.679H72.8822ZM72.1152 64.679V65.836H67.3702V64.679H72.1152Z" fill="white"/>
<path d="M49.8327 59.625H72.167V60.275H49.8327V59.625ZM44.3465 75.625H77.6532V76.275H44.3465V75.625Z" fill="white"/>
</svg>
